<?xml version="1.0" standalone="no"?><!DOCTYPE svg PUBLIC "-//W3C//DTD SVG 1.1//EN" "http://www.w3.org/Graphics/SVG/1.1/DTD/svg11.dtd"><svg t="1568012727000" class="icon" viewBox="0 0 1024 1024" version="1.1" xmlns="http://www.w3.org/2000/svg" p-id="6383" xmlns:xlink="http://www.w3.org/1999/xlink" width="48" height="48"><defs><style type="text/css"></style></defs><path d="M512 0A512 512 0 1 0 1024 512 512 512 0 0 0 512 0z m209.204301 669.673978a36.555699 36.555699 0 0 1-51.750538 51.640431L511.779785 563.64043 353.995699 719.662796a36.555699 36.555699 0 1 1-52.301075-51.089893 3.303226 3.303226 0 0 1 0.88086-0.88086L460.249462 511.779785l-157.013333-157.453763a36.665806 36.665806 0 1 1 48.777634-55.053764 37.876989 37.876989 0 0 1 2.972904 2.972903l157.233548 158.114409 157.784086-156.132473a36.555699 36.555699 0 0 1 51.420215 52.08086L563.750538 512.220215l157.013333 157.453763z" fill="#FF5252" p-id="6384"></path></svg>