<svg xmlns="http://www.w3.org/2000/svg" viewBox="0 0 200 200"><path d="M100,12.5a5.994,5.994,0,0,1,6.25,6.25v37.5a6.252,6.252,0,1,1-12.5,0V18.75A5.994,5.994,0,0,1,100,12.5Z" style="fill:#666;fill-opacity:0.9599999785423279"/><path d="M100,137.5a5.994,5.994,0,0,1,6.25,6.25v37.5a6.252,6.252,0,1,1-12.5,0v-37.5A5.994,5.994,0,0,1,100,137.5Z" style="fill:currentColor;fill-opacity:0.9599999785423279"/><path d="M187.5,100a5.994,5.994,0,0,1-6.25,6.25h-37.5a6.252,6.252,0,1,1,0-12.5h37.5A5.994,5.994,0,0,1,187.5,100Z" style="fill:currentColor;fill-opacity:0.9599999785423279"/><path d="M62.5,100a5.994,5.994,0,0,1-6.25,6.25H18.75a6.252,6.252,0,1,1,0-12.5h37.5A5.994,5.994,0,0,1,62.5,100Z" style="fill:currentColor;fill-opacity:0.9599999785423279"/><path d="M38.083,38.083a6.541,6.541,0,0,1,4.5-1.75,5.874,5.874,0,0,1,4.3,1.75L73.442,64.65A6.415,6.415,0,0,1,75.2,69.042,6.354,6.354,0,0,1,69.042,75.2a6.433,6.433,0,0,1-4.392-1.75L38.083,46.875a5.856,5.856,0,0,1-1.75-4.3,6.54,6.54,0,0,1,1.75-4.5Z" style="fill:currentColor;fill-opacity:0.9599999785423279"/><path d="M126.558,126.558a5.921,5.921,0,0,1,8.792.009l26.567,26.558a5.861,5.861,0,0,1,1.75,4.3,6.348,6.348,0,0,1-6.25,6.25,5.832,5.832,0,0,1-4.3-1.75l-26.559-26.567a5.913,5.913,0,0,1,0-8.791Z" style="fill:currentColor;fill-opacity:0.9599999785423279"/><path d="M161.917,38.083a6.572,6.572,0,0,1,1.75,4.5,5.874,5.874,0,0,1-1.75,4.3L135.35,73.442a6.415,6.415,0,0,1-4.392,1.758,6.354,6.354,0,0,1-6.158-6.158,6.41,6.41,0,0,1,1.75-4.392l26.567-26.567a5.86,5.86,0,0,1,4.3-1.75,6.556,6.556,0,0,1,4.5,1.75Z" style="fill:currentColor;fill-opacity:0.9599999785423279"/><path d="M73.442,126.567a5.92,5.92,0,0,1-.009,8.791l-26.55,26.559a5.853,5.853,0,0,1-4.3,1.75,6.35,6.35,0,0,1-6.25-6.25,5.835,5.835,0,0,1,1.75-4.3L64.65,126.558a5.914,5.914,0,0,1,8.792,0Z" style="fill:currentColor;fill-opacity:0.9599999785423279"/></svg>