<?xml version="1.0" encoding="utf-8"?>
<!-- Generator: Adobe Illustrator 26.0.2, SVG Export Plug-In . SVG Version: 6.00 Build 0)  -->
<svg version="1.1" id="图层_1" xmlns="http://www.w3.org/2000/svg" xmlns:xlink="http://www.w3.org/1999/xlink" x="0px" y="0px"
	 viewBox="0 0 150 150" enable-background="new 0 0 150 150" xml:space="preserve">
<path fill="#22AEF9" d="M82.125,150c-15.75,0-31.5,0-47.25,0c0.026-0.373,0.071-0.745,0.075-1.118
	c0.14-11.929,0.283-23.857,0.407-35.786c0.036-3.492-0.035-6.985,0.043-10.476c0.028-1.26-0.626-1.828-1.631-2.175
	c-1.354-0.468-2.729-0.875-4.098-1.299c-6.169-1.914-11.524-5.339-16.668-9.111c-1.591-1.167-3.055-2.552-4.392-4.007
	c-1.338-1.458-2.096-3.255-1.877-5.319c0.321-3.036,0.545-6.089,1.023-9.1c1.131-7.125,3.498-13.891,6.212-20.548
	c1.615-3.962,1.593-3.972,5.726-3.294c3.51,0.575,3.601,0.615,2.629,4.043c-2,7.053-2.422,14.252-2.127,21.518
	c0.065,1.609,0.359,3.229,0.727,4.801c0.37,1.581,1.37,2.855,2.846,3.527c1.462,0.666,3.008,1.239,4.577,1.556
	c2.491,0.503,4.811,1.351,6.836,2.855c4.148,3.082,8.626,5.444,13.672,6.681c2.782,0.682,5.511,1.683,8.329,2.1
	c5.211,0.771,10.018-0.48,14.292-3.657c0.893-0.664,1.906-1.18,2.904-1.686c0.511-0.259,0.971-0.266,1.389,0.411
	c2.943,4.762,6.379,9.234,8.339,14.563c1.763,4.792,3.793,9.498,5.316,14.364c1.636,5.23,2.844,10.595,4.188,15.914
	c0.565,2.236,0.993,4.506,1.498,6.757c0.205,0.913-0.144,1.363-1.04,1.623c-2.694,0.782-5.374,1.612-8.044,2.472
	c-0.897,0.289-1.296,0.327-1.38-0.876c-0.317-4.542-0.673-9.087-1.211-13.608c-0.744-6.253-1.592-12.496-2.546-18.72
	c-0.376-2.453-1.138-4.85-1.783-7.257c-0.091-0.339-0.518-0.587-0.79-0.878c-0.252,0.37-0.705,0.734-0.716,1.111
	c-0.028,0.99,0.038,2.007,0.24,2.977c1.777,8.567,2.764,17.246,3.52,25.945C81.813,139.517,81.883,144.766,82.125,150z"/>
<path fill="#0D1014" d="M82.125,150c-0.242-5.234-0.312-10.483-0.765-15.699c-0.755-8.699-1.743-17.377-3.52-25.945
	c-0.201-0.97-0.268-1.986-0.24-2.977c0.011-0.377,0.464-0.741,0.716-1.111c0.272,0.29,0.699,0.539,0.79,0.878
	c0.645,2.407,1.406,4.804,1.783,7.257c0.955,6.224,1.803,12.467,2.546,18.72c0.538,4.521,0.894,9.065,1.211,13.608
	c0.084,1.203,0.483,1.165,1.38,0.876c2.67-0.86,5.35-1.69,8.044-2.472c0.896-0.26,1.245-0.71,1.04-1.623
	c-0.506-2.251-0.933-4.521-1.498-6.757c-1.344-5.319-2.551-10.685-4.188-15.914c-1.523-4.866-3.553-9.572-5.316-14.364
	c-1.961-5.33-5.396-9.802-8.339-14.563c-0.418-0.677-0.878-0.67-1.389-0.411c-0.997,0.506-2.01,1.022-2.904,1.686
	c-4.274,3.177-9.081,4.428-14.292,3.657c-2.818-0.417-5.546-1.417-8.329-2.1c-5.046-1.238-9.523-3.599-13.672-6.681
	c-2.025-1.505-4.345-2.352-6.836-2.855c-1.569-0.317-3.115-0.891-4.577-1.556c-1.476-0.672-2.476-1.945-2.846-3.527
	c-0.368-1.573-0.662-3.192-0.727-4.801c-0.295-7.266,0.127-14.465,2.127-21.518c0.972-3.428,0.881-3.467-2.629-4.043
	c-4.133-0.677-4.11-0.668-5.726,3.294c-2.714,6.657-5.081,13.423-6.212,20.548c-0.478,3.012-0.701,6.064-1.023,9.1
	c-0.219,2.064,0.539,3.862,1.877,5.319c1.336,1.456,2.801,2.841,4.392,4.007c5.144,3.772,10.498,7.197,16.668,9.111
	c1.369,0.425,2.744,0.831,4.098,1.299c1.005,0.347,1.659,0.914,1.631,2.175c-0.078,3.491-0.007,6.984-0.043,10.476
	c-0.123,11.929-0.267,23.857-0.407,35.786c-0.004,0.373-0.049,0.746-0.075,1.118c-0.875,0-1.75,0-2.625,0
	c0.077-0.603,0.246-1.21,0.219-1.808c-0.581-13.062,0.142-26.106,0.517-39.155c0.047-1.623,0.03-3.248,0.071-4.872
	c0.025-1.001-0.286-1.581-1.388-1.832c-6.38-1.447-11.93-4.635-17.288-8.265c-3.069-2.08-5.95-4.31-8.289-7.222
	c-1.564-1.947-2.34-4-2.033-6.56c0.94-7.827,2.127-15.583,5.031-22.98c1.139-2.903,2.153-5.855,3.21-8.79
	c0.523-1.45,1.379-2.561,2.658-3.502c0.835-0.615,1.411-1.701,1.865-2.686c0.651-1.411,1.165-2.9,1.595-4.396
	c1.048-3.648,3.254-6.57,5.683-9.368c1.102-1.269,2.452-2.114,4.118-2.416c4.703-0.855,9.407-1.212,14.146-0.21
	c0.83,0.175,1.753,0.17,2.589,0.013c6.382-1.194,12.809-1.319,19.218-0.53c7.063,0.869,13.297,3.767,18.619,8.523
	c3.323,2.969,5.616,6.674,7.304,10.752c1.63,3.938,2.81,7.996,3.1,12.291c0.342,5.074-0.244,9.931-2.532,14.569
	c-2.517,5.102-5.636,9.712-10.009,13.398c-0.904,0.762-1.881,1.443-2.868,2.096c-0.777,0.515-0.755,1.029-0.215,1.685
	c5.311,6.452,8.68,13.934,11.555,21.688c4.358,11.751,7.155,23.901,9.288,36.22c0.19,1.098,0.145,2.238,0.21,3.358
	c-0.75,0-1.5,0-2.25,0c-0.035-0.933,0.001-1.876-0.122-2.798c-0.245-1.85-0.701-2.112-2.492-1.548
	c-2.726,0.859-5.442,1.748-8.173,2.59c-0.907,0.279-1.404,0.759-1.213,1.757C83.625,150,82.875,150,82.125,150z M24.054,60.372
	c0.302,2.467,0.233,5.053,0.973,7.381c2.726,8.574,8.128,15.105,16.033,19.427c4.748,2.596,10.032,3.834,15.226,5.106
	c3.736,0.915,7.61,0.594,11.079-1.463c2.79-1.654,5.584-3.314,8.274-5.124c7.449-5.011,12.562-11.855,14.625-20.577
	c2.05-8.667-0.449-16.703-4.833-24.182c-3.317-5.659-8.579-8.942-14.558-11.201c-6.516-2.462-13.286-2.729-20.132-2.207
	c-1.491,0.114-2.998,0.244-4.447,0.582c-0.708,0.165-1.566,0.678-1.903,1.285c-2.067,3.728-5.209,5.743-9.36,6.431
	c-0.943,0.156-1.987,0.572-2.684,1.2c-3.116,2.81-5.446,6.15-6.451,10.316C24.865,51.62,24.387,55.952,24.054,60.372z
	 M35.523,27.592c-1.979,0.25-4.327,0.538-6.672,0.847c-1.297,0.171-2.28,0.861-3.173,1.808c-3.667,3.887-5.357,8.773-7.025,13.678
	c-0.255,0.751,0.007,1.245,0.75,1.411c1.094,0.245,2.2,0.536,3.308,0.573c0.48,0.016,1.194-0.433,1.437-0.873
	c1.562-2.829,3.061-5.694,4.501-8.587c0.824-1.654,2.033-2.582,3.89-2.799c1.42-0.166,2.827-0.489,4.22-0.823
	c1.559-0.374,2.904-1.181,3.879-2.461c0.966-1.269,0.572-2.314-0.997-2.557C38.416,27.621,37.156,27.669,35.523,27.592z
	 M22.722,68.674c-0.495,1.694-0.368,7.037,0.203,8.595c0.613,1.673,3.791,3.754,5.503,3.621c0.62-0.048,0.757-0.387,0.535-0.879
	c-0.228-0.504-0.525-0.98-0.818-1.451c-0.819-1.316-1.725-2.582-2.46-3.943C24.634,72.672,23.705,70.661,22.722,68.674z"/>
<path fill="#FDFDFD" d="M84.375,150c-0.191-0.997,0.306-1.478,1.213-1.757c2.731-0.841,5.447-1.731,8.173-2.59
	c1.79-0.564,2.247-0.302,2.492,1.548c0.122,0.922,0.086,1.865,0.122,2.798C92.375,150,88.375,150,84.375,150z"/>
<path fill="#0D1014" d="M113.431,9.763c1.804,0.443,3.667,0.726,5.399,1.365c2.655,0.981,4.226,3.044,4.769,5.811
	c0.973,4.961-0.214,9.163-4.476,12.221c-0.862,0.619-1.682,1.326-2.616,1.807c-1.255,0.646-1.429,1.568-1.142,2.804
	c0.282,1.214,0.477,2.449,0.681,3.68c0.071,0.427,0.093,0.87,0.072,1.303c-0.035,0.712-0.153,1.38-1.076,1.491
	c-0.954,0.115-1.372-0.377-1.547-1.228c-0.569-2.75-1.205-5.488-1.698-8.252c-0.269-1.51,0.158-1.869,1.857-2.807
	c1.568-0.865,3.192-1.736,4.515-2.914c2.357-2.098,2.622-4.886,1.734-7.759c-0.758-2.453-2.777-3.811-5.386-3.888
	c-2.738-0.08-5.131,0.883-7.334,2.424c-0.561,0.392-1.11,0.807-1.699,1.151c-0.603,0.352-1.353,0.715-1.827-0.043
	c-0.36-0.577-0.74-1.475-0.531-1.999c0.348-0.871,1.028-1.749,1.803-2.284C107.444,10.909,110.246,9.912,113.431,9.763z"/>
<path fill="#0D1014" d="M137.713,19.262c2.468,0.019,4.515,0.872,5.853,2.894c1.157,1.749,2.343,3.583,2.974,5.554
	c1.303,4.068-0.698,8.139-4.688,10.093c-1.11,0.544-2.315,0.979-3.524,1.216c-2.555,0.5-3.877,2.044-4.301,4.516
	c-0.126,0.737-0.302,1.465-0.445,2.2c-0.183,0.946-0.697,1.407-1.704,1.269c-1.136-0.156-1.789-0.745-1.803-1.769
	c-0.005-0.363,0.071-0.751,0.205-1.089c0.831-2.086,1.689-4.161,2.54-6.239c0.436-1.064,1.337-1.342,2.376-1.541
	c1.586-0.304,3.196-0.606,4.703-1.16c2.26-0.831,3.774-2.425,3.962-4.964c0.188-2.541-0.987-4.477-2.943-5.928
	c-2.396-1.777-4.959-1.786-7.514-0.208c-0.475,0.293-0.978,0.543-1.482,0.784c-0.891,0.427-1.592,0.096-2.091-0.656
	c-0.522-0.787-0.736-1.715,0.064-2.382c0.798-0.665,1.718-1.32,2.694-1.604C134.252,19.765,136.001,19.576,137.713,19.262z"/>
<path fill="#0D1014" d="M132.412,53.255c0.01,1.475-0.558,2.305-1.584,2.315c-1.131,0.011-2.18-1.218-2.195-2.571
	c-0.013-1.166,0.592-1.692,1.942-1.69C131.987,51.311,132.401,51.75,132.412,53.255z"/>
<path fill="#0D1014" d="M117.843,46.246c0.013,1.133-0.449,1.629-1.508,1.619c-1.311-0.013-2.144-0.984-2.158-2.471
	c-0.009-1.007,0.62-1.232,1.445-1.262C117.021,44.082,117.826,44.845,117.843,46.246z"/>
<path fill="#FDFDFD" d="M24.054,60.372c0.332-4.421,0.811-8.753,1.842-13.026c1.005-4.166,3.335-7.505,6.451-10.316
	c0.697-0.629,1.741-1.044,2.684-1.2c4.151-0.688,7.293-2.703,9.36-6.431c0.337-0.607,1.195-1.12,1.903-1.285
	c1.449-0.338,2.956-0.468,4.447-0.582c6.846-0.523,13.616-0.256,20.132,2.207c5.979,2.26,11.241,5.543,14.558,11.201
	c4.385,7.48,6.883,15.516,4.833,24.182c-2.063,8.722-7.176,15.566-14.625,20.577c-2.69,1.81-5.483,3.47-8.274,5.124
	c-3.468,2.056-7.343,2.377-11.079,1.463c-5.194-1.272-10.478-2.51-15.226-5.106c-7.905-4.322-13.307-10.853-16.033-19.427
	C24.287,65.425,24.356,62.84,24.054,60.372z M57.118,78.938c5.069,0.039,8.58-2.049,10.487-6.415c1.349-3.09,1.47-6.411,1.632-9.708
	c0.021-0.43-0.229-1.182-0.49-1.249c-0.447-0.114-1.184,0.033-1.477,0.359c-0.876,0.979-1.991,1.249-3.177,1.373
	c-3.783,0.397-7.568,0.772-11.354,1.132c-1.862,0.177-3.727,0.36-5.595,0.412c-0.606,0.017-1.44-0.197-1.784-0.619
	c-0.513-0.63-1.017-1.37-1.742-0.893c-0.428,0.281-0.67,1.362-0.503,1.942c0.72,2.505,1.455,5.03,2.498,7.411
	c1.333,3.041,3.866,4.848,7.072,5.607C54.133,78.632,55.639,78.73,57.118,78.938z M67.248,48.459
	c0.03-1.453-0.482-2.041-1.784-2.045c-1.139-0.004-1.831,0.59-1.885,1.619c-0.056,1.065,0.894,2.109,1.928,2.12
	C66.64,50.164,67.225,49.596,67.248,48.459z M46.681,50.538c0.014-0.967-0.904-2.174-1.676-2.203
	c-0.745-0.028-1.408,0.84-1.443,1.889c-0.038,1.133,0.706,2.095,1.655,2.142C46.024,52.405,46.665,51.605,46.681,50.538z"/>
<path fill="#FDFDFD" d="M35.523,27.592c1.633,0.076,2.893,0.029,4.117,0.218c1.569,0.243,1.963,1.288,0.997,2.557
	c-0.974,1.28-2.32,2.087-3.879,2.461c-1.393,0.335-2.8,0.658-4.22,0.823c-1.858,0.217-3.066,1.144-3.89,2.799
	c-1.441,2.893-2.94,5.758-4.501,8.587c-0.243,0.44-0.956,0.889-1.437,0.873c-1.108-0.037-2.214-0.328-3.308-0.573
	c-0.744-0.167-1.006-0.66-0.75-1.411c1.668-4.905,3.358-9.79,7.025-13.678c0.893-0.947,1.876-1.638,3.173-1.808
	C31.196,28.13,33.544,27.843,35.523,27.592z"/>
<path fill="#FDFDFD" d="M22.722,68.674c0.983,1.987,1.912,3.998,2.963,5.943c0.735,1.36,1.642,2.627,2.46,3.943
	c0.293,0.471,0.591,0.947,0.818,1.451c0.222,0.492,0.084,0.831-0.535,0.879c-1.712,0.133-4.89-1.948-5.503-3.621
	C22.354,75.711,22.227,70.369,22.722,68.674z"/>
<path fill="#0D1014" d="M57.118,78.938c-1.479-0.209-2.985-0.306-4.433-0.649c-3.207-0.759-5.739-2.565-7.072-5.607
	c-1.043-2.381-1.779-4.906-2.498-7.411c-0.167-0.58,0.075-1.661,0.503-1.942c0.725-0.477,1.229,0.263,1.742,0.893
	c0.344,0.422,1.178,0.636,1.784,0.619c1.867-0.052,3.733-0.235,5.595-0.412c3.787-0.359,7.572-0.735,11.354-1.132
	c1.186-0.124,2.301-0.395,3.177-1.373c0.292-0.327,1.03-0.473,1.477-0.359c0.261,0.067,0.511,0.819,0.49,1.249
	c-0.162,3.297-0.283,6.618-1.632,9.708C65.698,76.889,62.187,78.978,57.118,78.938z M56.85,76.62
	c2.515,0.012,4.294-0.457,5.702-1.439c3.021-2.106,3.609-5.385,4.151-8.66c0.192-1.16-0.609-1.034-1.451-0.953
	c-5.895,0.573-11.793,1.106-17.693,1.62c-1.421,0.124-1.577,0.236-1.174,1.536C48.019,73.993,51.637,76.691,56.85,76.62z"/>
<path fill="#0D1014" d="M67.248,48.459c-0.024,1.137-0.608,1.705-1.742,1.693c-1.034-0.01-1.984-1.055-1.928-2.12
	c0.054-1.029,0.746-1.623,1.885-1.619C66.766,46.418,67.279,47.006,67.248,48.459z"/>
<path fill="#0D1014" d="M46.681,50.538c-0.016,1.067-0.657,1.867-1.464,1.828c-0.949-0.046-1.693-1.009-1.655-2.142
	c0.035-1.049,0.698-1.917,1.443-1.889C45.777,48.363,46.695,49.571,46.681,50.538z"/>
<path fill="#FDFDFD" d="M56.85,76.62c-5.213,0.07-8.831-2.627-10.466-7.896c-0.403-1.3-0.247-1.412,1.174-1.536
	c5.9-0.514,11.799-1.047,17.693-1.62c0.842-0.082,1.643-0.207,1.451,0.953c-0.542,3.275-1.13,6.554-4.151,8.66
	C61.144,76.163,59.365,76.632,56.85,76.62z"/>
</svg>
