<?xml version="1.0" encoding="utf-8"?>
<!-- Generator: Adobe Illustrator 26.0.2, SVG Export Plug-In . SVG Version: 6.00 Build 0)  -->
<svg version="1.1" id="图层_1" xmlns="http://www.w3.org/2000/svg" xmlns:xlink="http://www.w3.org/1999/xlink" x="0px" y="0px"
	 viewBox="0 0 512 512" enable-background="new 0 0 512 512" xml:space="preserve">
<path fill="#46A1FE" d="M513.068,262.846c0.009,22.925,0.017,45.85,0.026,68.775c-2.338,2.586-5.386,2.65-8.559,2.542
	c-21.115-0.72-42.229-1.452-63.348-2.063c-18.124-0.525-36.253-0.876-54.379-1.358c-2.151-0.057-4.289-0.592-6.44-0.658
	c-2.801-0.086-5.671-0.247-8.387,0.274c-1.238,0.238-2.948,1.969-3.044,3.138c-0.103,1.257,1.133,3.222,2.326,3.85
	c1.817,0.956,4.091,1.364,6.186,1.418c12.812,0.332,25.632,0.35,38.441,0.751c27.432,0.859,54.859,1.869,82.285,2.873
	c2.975,0.109,5.936,0.588,8.904,0.896c0.476,0.893,0.952,1.787,1.428,2.68c0.46-0.888,0.92-1.776,1.379-2.664
	c1.097,0.35,2.194,0.699,3.292,1.049c-0.011,5.469-0.022,10.937-0.032,16.406c-2.966,0.895-5.916,2.505-8.901,2.573
	c-24.807,0.567-49.619,1.066-74.432,1.15c-19.649,0.066-39.308-0.921-58.946-0.557c-8.794,0.163-17.151-0.864-25.549-3.041
	c-6.425-1.666-11.132-6.127-9.718-11.226c2.685-9.681,6.345-19.093,9.655-28.597c0.32-0.919,1.044-1.693,1.548-2.554
	c4.056-6.927,7.321-14.026,8.039-22.281c0.719-8.263,2.385-16.443,3.62-24.662c0.47-3.126,2.063-4.364,5.402-4.459
	c20.129-0.576,40.256-1.273,60.374-2.144c27.612-1.196,55.215-2.59,82.824-3.846c0.681-0.031,1.391,0.56,2.087,0.86
	c-0.522,0.868-1.045,1.736-1.567,2.603c0.978-0.256,1.971-0.472,2.926-0.797c0.246-0.084,0.375-0.512,0.557-0.783
	C511.733,262.945,512.401,262.895,513.068,262.846z"/>
<path fill="#8FC1F5" d="M512.987,373.396c0.041,4.158,0.052,8.317,0.137,12.474c0.041,1.985-0.343,2.549-2.775,2.639
	c-15.894,0.586-31.764,1.878-47.659,2.328c-21.934,0.621-43.889,1.123-65.825,0.85c-12.037-0.149-24.038-2.254-36.085-2.972
	c-6.886-0.41-13.857-0.108-20.747,0.419c-7.904,0.605-15.749,1.935-23.642,2.734c-10.699,1.084-21.408,2.132-32.136,2.841
	c-3.923,0.259-7.908-0.624-11.872-0.765c-11.787-0.421-23.603-0.357-35.361-1.16c-27.929-1.909-55.749-4.914-83.304-9.998
	c-3.738-0.69-7.368-1.959-11.054-2.939c-8.788-2.337-17.669-4.378-26.329-7.116c-4.047-1.28-7.867-3.602-11.444-5.974
	c-7.318-4.852-7.421-14.565-0.696-20.153c10.365-8.613,22.438-12.736,34.733-16.67c2.218-0.71,5.365,0.861,7.872,1.891
	c1.693,0.696,3.014,2.368,4.578,0c4.438,4.875,8.617,10.022,13.385,14.549c4.993,4.741,10.418,9.066,15.923,13.216
	c2.582,1.946,5.226,0.297,4.611-2.817c-0.51-2.583-2.116-4.949-3.236-7.412c0.534-0.593,1.248-1.784,1.574-1.686
	c2.618,0.786,2.235-0.963,2.308-2.455c0.327-6.706,0.528-13.422,1.07-20.111c0.465-5.744,1.592-11.439,1.957-17.185
	c0.587-9.243,0.769-18.511,1.161-27.766c0.157-3.705,1.869-5.823,4.439-5.192c2.857,0.701,4.119,2.396,3.88,5.801
	c-0.33,4.704,0.33,9.478,0.566,14.222c-0.959,0.687-2.779,1.421-2.745,2.053c0.398,7.228-2.41,14.779,1.96,21.631
	c-2.839,0.848-4.465,2.015-3.574,5.673c0.671,2.754-0.277,5.867-0.219,8.814c0.146,7.463-3.296,14.871-0.343,22.37
	c-0.683,0.36-1.686,0.542-1.998,1.107c-2.333,4.215-1.323,7.902,3.485,9.365c7.062,2.149,14.397,3.4,21.616,5.034
	c0.222,0.02,0.444,0.039,0.667,0.059c14.315,0.257,28.63,0.514,42.945,0.77c0.413-0.055,0.826-0.11,1.238-0.165
	c0.095-0.348,0.316-0.57,0.663-0.668c0.071-1.052,0.142-2.105,0.213-3.157c-0.026-0.467-0.053-0.934-0.079-1.401
	c-0.054-0.679-0.109-1.359-0.163-2.038c-0.051-0.585-0.102-1.169-0.152-1.754c0.167-0.543,0.333-1.085,0.5-1.628
	c1.605-2.002,3.209-4.003,4.814-6.005c0.757,2.239,1.515,4.478,2.272,6.717c-0.034,0.163-0.072,0.325-0.102,0.489
	c-1.635,8.979-0.643,10.336,7.866,8.059c14.587-3.904,29.559-4.53,44.425-6.103c1.91-0.202,3.985,0.234,5.862,0.788
	c6.666,1.969,13.266,4.162,19.923,6.16c1.403,0.421,2.944,0.483,4.427,0.523c10.149,0.273,20.3,0.727,30.449,0.693
	c32.13-0.109,64.26-0.394,96.39-0.64c8.989-0.069,17.984-0.063,26.96-0.468C509.019,371.147,511.127,371.527,512.987,373.396z
	 M118.92,347.073c-0.285-0.344-0.57-0.688-0.854-1.031c-3.233,2.156-6.596,4.144-9.661,6.518c-2.961,2.294-2.86,5.782,0.212,7.926
	c2.155,1.504,4.614,2.648,7.071,3.612c1.165,0.457,2.643,0.118,3.979,0.14c-0.742-1.008-1.341-2.174-2.253-2.993
	c-2.69-2.419-3.523-6.171-1.746-9.271C116.641,350.276,117.829,348.702,118.92,347.073z M314.564,383.419
	c7.587,1.393,13.996,0.058,20.405-0.942c1.617-0.252,3.204-0.779,4.754-1.325c0.675-0.238,1.22-0.843,1.823-1.282
	c-0.698-0.581-1.327-1.297-2.116-1.696c-0.538-0.272-1.317-0.212-1.958-0.11c-6.475,1.021-12.953,2.03-19.405,3.183
	C317.115,381.418,316.293,382.318,314.564,383.419z"/>
<path fill="#0C0E10" d="M182.06,349.361c1.12,2.462,2.727,4.829,3.236,7.412c0.614,3.114-2.03,4.763-4.611,2.817
	c-5.505-4.15-10.93-8.474-15.923-13.216c-4.768-4.527-8.947-9.675-13.385-14.549c-6.625-9.419-12.313-19.287-16.01-30.3
	c-9.684-28.847-7.481-57.07,6.063-83.877c17.249-34.14,45.568-54.319,82.877-62.777c42.173-9.561,96.243,11.532,119.852,53.38
	c6.837,12.12,11.866,24.88,15.18,38.333c0.666,2.702,0.64,5.617,0.623,8.432c-0.02,3.263,1.365,4.32,4.571,4.184
	c10.643-0.45,21.303-0.517,31.942-1.036c17.129-0.836,34.245-1.941,51.369-2.884c17.62-0.97,35.243-1.874,52.864-2.829
	c3.301-0.179,6.599-0.428,9.894-0.703c2.01-0.168,3.258,0.398,3.112,2.694c-0.105,1.661-0.142,3.327-0.209,4.99l-0.033,0.31
	c-0.135,1.034-0.269,2.068-0.404,3.103c-0.668,0.05-1.336,0.099-2.003,0.149l-0.011,0.054c-0.419-0.303-0.839-0.606-1.258-0.908
	c-0.176-0.207-0.391-0.264-0.646-0.169c-0.696-0.301-1.406-0.891-2.087-0.86c-27.609,1.256-55.213,2.651-82.824,3.846
	c-20.118,0.871-40.245,1.569-60.374,2.144c-3.339,0.095-4.932,1.333-5.402,4.459c-1.235,8.219-2.901,16.399-3.62,24.662
	c-0.718,8.255-3.983,15.354-8.039,22.281c-0.504,0.861-1.228,1.635-1.548,2.554c-3.31,9.504-6.97,18.916-9.655,28.597
	c-1.414,5.099,3.293,9.56,9.718,11.226c8.398,2.178,16.755,3.204,25.549,3.041c19.638-0.364,39.297,0.623,58.946,0.557
	c24.812-0.084,49.625-0.582,74.432-1.15c2.985-0.068,5.935-1.678,8.901-2.573c-0.053,4.214-0.107,8.427-0.16,12.641
	c-1.86-1.869-3.968-2.248-6.671-2.126c-8.975,0.405-17.971,0.4-26.96,0.468c-32.13,0.246-64.26,0.531-96.39,0.64
	c-10.149,0.034-20.3-0.419-30.449-0.693c-1.483-0.04-3.024-0.102-4.427-0.523c-6.658-1.998-13.257-4.191-19.923-6.16
	c-1.876-0.554-3.951-0.99-5.862-0.788c-14.866,1.573-29.837,2.199-44.425,6.103c-8.509,2.277-9.5,0.92-7.866-8.059
	c0.03-0.164,0.068-0.326,0.102-0.489c14.964-1.932,29.653-4.726,41.496-15.105c4.981-4.366,9.888-8.874,14.373-13.737
	c11.899-12.9,19.448-28.467,22.318-45.415c2.195-12.965,1.892-26.596,0.911-39.798c-1.484-19.982-11.067-37.021-24.361-51.419
	c-24.931-27.001-56.382-37.876-92.774-34.023c-16.935,1.793-32.787,7.602-46.765,17.283c-28.333,19.626-44.678,46.502-46.787,81.327
	C136.244,298.597,152.171,327.432,182.06,349.361z"/>
<path fill="#0C0E10" d="M513.18,344.349c-1.097-0.35-2.194-0.699-3.292-1.049c-0.936-0.006-1.872-0.011-2.808-0.017
	c-2.968-0.307-5.929-0.787-8.904-0.896c-27.427-1.004-54.854-2.014-82.285-2.873c-12.809-0.401-25.63-0.419-38.441-0.751
	c-2.095-0.054-4.369-0.462-6.186-1.418c-1.193-0.628-2.429-2.592-2.326-3.85c0.096-1.169,1.806-2.901,3.044-3.138
	c2.716-0.521,5.586-0.36,8.387-0.274c2.152,0.066,4.289,0.601,6.44,0.658c18.126,0.482,36.255,0.833,54.379,1.358
	c21.118,0.612,42.233,1.343,63.348,2.063c3.172,0.108,6.221,0.044,8.559-2.542C513.123,335.863,513.151,340.106,513.18,344.349z"/>
<path fill="#8FC1F5" d="M507.08,343.283c0.936,0.006,1.872,0.011,2.808,0.017c-0.46,0.888-0.92,1.776-1.379,2.664
	C508.032,345.07,507.556,344.176,507.08,343.283z"/>
<path fill="#8FC1F5" d="M509.149,261.971c0.255-0.094,0.47-0.038,0.646,0.169c0.419,0.303,0.839,0.606,1.258,0.908l0.011-0.054
	c-0.182,0.27-0.311,0.699-0.557,0.783c-0.955,0.325-1.947,0.541-2.926,0.797C508.104,263.707,508.627,262.839,509.149,261.971z"/>
<path fill="#FEFEFE" d="M182.06,349.361c-29.89-21.929-45.816-50.764-43.532-88.479c2.109-34.826,18.454-61.702,46.787-81.327
	c13.977-9.682,29.83-15.49,46.765-17.283c36.392-3.853,67.843,7.022,92.774,34.023c13.294,14.398,22.877,31.437,24.361,51.419
	c0.981,13.202,1.284,26.833-0.911,39.798c-2.87,16.948-10.419,32.515-22.318,45.415c-4.486,4.863-9.392,9.371-14.373,13.737
	c-11.842,10.379-26.531,13.173-41.496,15.105c-0.757-2.239-1.515-4.478-2.272-6.717c-0.1-1.365-0.199-2.73-0.299-4.095
	c0.437-3.505,0.996-7.002,1.222-10.521c0.053-0.817-1.027-1.706-1.585-2.562c0.026-2.204,0.052-4.409,0.078-6.613
	c0.487-1.073,1.37-2.142,1.38-3.22c0.022-2.453-0.548-4.907-0.586-7.366c-0.127-8.286,0.366-16.614-0.304-24.851
	c-0.772-9.493-2.436-18.92-3.928-28.342c-0.313-1.976-0.931-4.422-3.97-4.15c-0.541,0.052-1.082,0.103-1.623,0.155
	c-0.445,0.166-1.278,0.332-1.279,0.5c-0.007,2.994-0.441,6.121,0.277,8.952c1.183,4.665,2.902,9.152,0.751,13.942
	c-0.937,1.08-1.787,2.256-2.836,3.213c-1.024,0.934-2.178,2.198-3.404,2.365c-9.484,1.294-19.002,2.33-28.503,3.5
	c-5.745,0.707-11.524,1.266-17.198,2.362c-3.468,0.67-5.793,0.136-7.023-3.332c-0.236-4.744-0.896-9.518-0.566-14.222
	c0.239-3.406-1.023-5.1-3.88-5.801c-2.57-0.631-4.282,1.486-4.439,5.192c-0.392,9.256-0.574,18.524-1.161,27.766
	c-0.365,5.746-1.492,11.441-1.957,17.185c-0.542,6.689-0.743,13.406-1.07,20.111c-0.073,1.492,0.311,3.241-2.308,2.455
	C183.308,347.578,182.595,348.768,182.06,349.361z M252.955,251.268c-3.058,0.061-5.867,2.7-5.913,5.554
	c-0.046,2.875,2.437,5.334,5.397,5.344c3.505,0.012,5.964-2.407,5.978-5.883C258.43,253.209,256.245,251.203,252.955,251.268z
	 M195.287,258.659c-3.715,0.011-5.767,1.686-5.747,4.69c0.021,3.056,2.8,5.145,6.714,5.01c3.412-0.118,3.868-2.466,3.877-5.169
	C200.143,259.691,199.045,258.648,195.287,258.659z"/>
<path fill="#FEFEFE" d="M194.095,355.532c-2.953-7.499,0.489-14.907,0.343-22.37c-0.058-2.948,0.89-6.06,0.219-8.814
	c-0.891-3.658,0.735-4.826,3.574-5.673c4.033,6.937,9.656,12.191,17.035,15.323c10.518,4.464,20.933,5.318,30.335-2.627
	c3.891-3.288,7.296-7.152,10.922-10.753c4.846,0.188,5.336,0.799,4.426,5.621c-0.182,0.967-0.693,1.919-0.67,2.869
	c0.235,9.744,0.528,19.487,0.871,29.228c0.033,0.924,0.512,1.832,0.784,2.747c0.116,0.52,0.232,1.04,0.348,1.56
	c-1.227,0.39-2.444,1.081-3.682,1.12c-6.123,0.192-12.29,0.684-18.372,0.201C224.586,362.721,208.675,362.67,194.095,355.532z"/>
<path fill="#0C0E10" d="M256.522,320.616c-3.626,3.602-7.031,7.465-10.922,10.753c-9.402,7.945-19.817,7.091-30.335,2.627
	c-7.379-3.132-13.002-8.386-17.035-15.323c-4.37-6.853-1.562-14.403-1.96-21.631c-0.035-0.632,1.786-1.366,2.745-2.053
	c1.23,3.468,3.555,4.002,7.023,3.332c5.673-1.096,11.453-1.655,17.198-2.362c9.501-1.17,19.02-2.206,28.503-3.5
	c1.226-0.167,2.38-1.431,3.404-2.365c1.049-0.957,1.899-2.133,2.836-3.213c0.718,2.075,1.888,4.114,2.055,6.232
	c0.296,3.753-0.145,7.556-0.048,11.333C260.133,310.137,259.218,315.556,256.522,320.616z M229.299,328.826
	c2.717-0.593,5.728-0.63,8.1-1.878c9.258-4.873,15.745-12.033,17.326-22.858c0.616-4.218-0.286-4.899-4.526-4.05
	c-7.609,1.524-15.253,2.947-22.941,3.979c-7.065,0.948-14.209,1.303-21.314,1.971c-2.031,0.191-4.282,0.284-2.92,3.481
	C207.483,319.938,216.272,328.407,229.299,328.826z"/>
<path fill="#0C0E10" d="M194.095,355.532c14.581,7.139,30.491,7.189,46.133,8.431c6.082,0.483,12.248-0.009,18.372-0.201
	c1.238-0.039,2.455-0.729,3.682-1.12l0.249,0.042c0.051,0.585,0.102,1.169,0.152,1.754c0.054,0.679,0.109,1.359,0.163,2.038
	c0.026,0.467,0.053,0.934,0.079,1.401c-0.071,1.052-0.142,2.105-0.213,3.157c-0.347,0.098-0.568,0.32-0.663,0.668
	c-0.413,0.055-0.826,0.11-1.238,0.165c-14.315-0.257-28.63-0.514-42.945-0.77c-0.2-0.267-0.422-0.286-0.667-0.059
	c-7.219-1.634-14.554-2.884-21.616-5.034c-4.808-1.463-5.817-5.15-3.485-9.365C192.409,356.074,193.412,355.891,194.095,355.532z"/>
<path fill="#FEFEFE" d="M118.92,347.073c-1.091,1.629-2.279,3.203-3.252,4.9c-1.777,3.1-0.944,6.852,1.746,9.271
	c0.911,0.819,1.511,1.985,2.253,2.993c-1.336-0.022-2.814,0.318-3.979-0.14c-2.457-0.964-4.916-2.107-7.071-3.612
	c-3.072-2.145-3.173-5.632-0.212-7.926c3.064-2.374,6.428-4.361,9.661-6.518C118.35,346.385,118.635,346.729,118.92,347.073z"/>
<path fill="#FEFEFE" d="M314.564,383.419c1.729-1.102,2.551-2.002,3.503-2.172c6.452-1.153,12.93-2.163,19.405-3.183
	c0.641-0.101,1.421-0.161,1.958,0.11c0.789,0.399,1.419,1.115,2.116,1.696c-0.604,0.439-1.149,1.044-1.823,1.282
	c-1.55,0.546-3.138,1.073-4.754,1.325C328.56,383.478,322.151,384.813,314.564,383.419z"/>
<path fill="#46A1FE" d="M267.545,350.957c0.1,1.365,0.199,2.73,0.299,4.095c-1.605,2.002-3.209,4.003-4.814,6.005l-0.02-0.021
	c1.372-9.489,2.687-18.982,2.01-28.614c-0.16-2.278-0.367-4.552-0.552-6.828c0.275-0.038,0.55-0.076,0.825-0.114
	c0.656,1.927,1.311,3.854,1.967,5.781c-0.026,2.204-0.052,4.409-0.078,6.613C267.303,342.235,267.424,346.596,267.545,350.957z"/>
<path fill="#46A1FE" d="M262.711,371.034c0.071-1.052,0.142-2.105,0.213-3.157C262.854,368.93,262.783,369.982,262.711,371.034z"/>
<path fill="#46A1FE" d="M262.53,362.685l-0.249-0.042c-0.116-0.52-0.232-1.04-0.348-1.56c0.359-0.015,0.719-0.031,1.078-0.046
	l0.02,0.021C262.864,361.6,262.697,362.142,262.53,362.685z"/>
<path fill="#46A1FE" d="M262.846,366.476c-0.054-0.679-0.109-1.359-0.163-2.038C262.737,365.118,262.791,365.797,262.846,366.476z"
	/>
<path fill="#46A1FE" d="M217.197,371.038c0.245-0.227,0.467-0.208,0.667,0.059C217.642,371.077,217.42,371.057,217.197,371.038z"/>
<path fill="#46A1FE" d="M260.81,371.867c0.413-0.055,0.826-0.11,1.238-0.165C261.635,371.757,261.222,371.812,260.81,371.867z"/>
<path fill="#46A1FE" d="M511.053,263.049c-0.419-0.303-0.839-0.606-1.258-0.908C510.215,262.443,510.634,262.746,511.053,263.049z"
	/>
<path fill="#8FC1F5" d="M263.011,361.036c-0.359,0.015-0.719,0.031-1.078,0.046c-0.272-0.915-0.751-1.824-0.784-2.747
	c-0.343-9.741-0.637-19.484-0.871-29.228c-0.023-0.95,0.488-1.903,0.67-2.869c0.91-4.822,0.42-5.434-4.426-5.621
	c2.696-5.06,3.611-10.479,3.465-16.17c-0.097-3.776,0.343-7.58,0.048-11.333c-0.167-2.118-1.337-4.157-2.055-6.232
	c2.151-4.79,0.432-9.277-0.751-13.942c-0.717-2.83-0.284-5.958-0.277-8.952c0-0.168,0.833-0.333,1.279-0.5
	c0.205,0.636,0.41,1.272,0.615,1.908c0.336-0.688,0.672-1.376,1.008-2.064c3.039-0.272,3.657,2.174,3.97,4.15
	c1.492,9.422,3.156,18.849,3.928,28.342c0.669,8.237,0.177,16.565,0.304,24.851c0.038,2.458,0.608,4.913,0.586,7.366
	c-0.01,1.077-0.893,2.147-1.38,3.22c-0.656-1.927-1.311-3.854-1.967-5.781c-0.275,0.038-0.55,0.076-0.825,0.114
	c0.185,2.276,0.392,4.551,0.552,6.828C265.697,342.054,264.383,351.547,263.011,361.036z"/>
<path fill="#0C0E10" d="M252.955,251.268c3.29-0.065,5.475,1.941,5.463,5.016c-0.015,3.476-2.473,5.895-5.978,5.883
	c-2.96-0.01-5.443-2.469-5.397-5.344C247.088,253.968,249.897,251.329,252.955,251.268z"/>
<path fill="#0C0E10" d="M195.287,258.659c3.759-0.011,4.857,1.032,4.844,4.531c-0.009,2.703-0.465,5.052-3.877,5.169
	c-3.914,0.135-6.693-1.954-6.714-5.01C189.519,260.344,191.572,258.67,195.287,258.659z"/>
<path fill="#8FC1F5" d="M267.545,350.957c-0.121-4.361-0.242-8.722-0.363-13.083c0.558,0.856,1.638,1.745,1.585,2.562
	C268.541,343.955,267.983,347.452,267.545,350.957z"/>
<path fill="#46A1FE" d="M259.853,263.333c-0.336,0.688-0.672,1.376-1.008,2.064c-0.205-0.636-0.41-1.272-0.615-1.908
	C258.772,263.436,259.313,263.385,259.853,263.333z"/>
<path fill="#FEFEFE" d="M229.299,328.826c-13.026-0.419-21.816-8.889-26.276-19.356c-1.362-3.197,0.889-3.29,2.92-3.481
	c7.105-0.667,14.249-1.022,21.314-1.971c7.688-1.032,15.332-2.454,22.941-3.979c4.24-0.85,5.143-0.168,4.526,4.05
	c-1.582,10.826-8.068,17.985-17.326,22.858C235.027,328.197,232.016,328.233,229.299,328.826z"/>
</svg>
