<?xml version="1.0" encoding="UTF-8" standalone="no"?>
<svg
   xmlns:dc="http://purl.org/dc/elements/1.1/"
   xmlns:cc="http://creativecommons.org/ns#"
   xmlns:rdf="http://www.w3.org/1999/02/22-rdf-syntax-ns#"
   xmlns:svg="http://www.w3.org/2000/svg"
   xmlns="http://www.w3.org/2000/svg"
   xmlns:sodipodi="http://sodipodi.sourceforge.net/DTD/sodipodi-0.dtd"
   xmlns:inkscape="http://www.inkscape.org/namespaces/inkscape"
   version="1.1"
   id="svg2"
   xml:space="preserve"
   width="800"
   height="800"
   viewBox="0 0 800 800"
   sodipodi:docname="Ko-fi_Icon_RGB_rounded.eps"><metadata
     id="metadata8"><rdf:RDF><cc:Work
         rdf:about=""><dc:format>image/svg+xml</dc:format><dc:type
           rdf:resource="http://purl.org/dc/dcmitype/StillImage" /></cc:Work></rdf:RDF></metadata><defs
     id="defs6" /><sodipodi:namedview
     pagecolor="#ffffff"
     bordercolor="#666666"
     borderopacity="1"
     objecttolerance="10"
     gridtolerance="10"
     guidetolerance="10"
     inkscape:pageopacity="0"
     inkscape:pageshadow="2"
     inkscape:window-width="640"
     inkscape:window-height="480"
     id="namedview4" /><g
     id="g10"
     inkscape:groupmode="layer"
     inkscape:label="ink_ext_XXXXXX"
     transform="matrix(1.3333333,0,0,-1.3333333,0,800)"><g
       id="g12"
       transform="scale(0.1)"><path
         d="M 6000,3000 C 6000,4656.86 4656.86,6000 3000,6000 1343.14,6000 0,4656.86 0,3000 0,1343.14 1343.14,0 3000,0 4656.86,0 6000,1343.14 6000,3000"
         style="fill:#50aee4;fill-opacity:1;fill-rule:nonzero;stroke:none"
         id="path14" /><path
         d="m 5484.27,3458.67 c -63.19,333.74 -242.84,541.64 -426.97,670.19 -190.41,132.95 -418.48,201.26 -650.72,201.26 H 1110.73 c -114.656,0 -158.574,-111.94 -159.007,-168.01 -0.059,-7.31 0.207,-36.57 0.207,-36.57 0,0 -5.407,-1458.13 4.832,-2236.93 31.105,-459.78 491.768,-459.63 491.768,-459.63 0,0 1504.04,4.41 2225.35,8.89 33.83,0.22 67.61,3.86 100.44,12.07 410.68,102.75 453.17,484.28 448.78,696.96 825.48,-45.86 1407.92,536.64 1261.17,1311.77 m -927.31,-756.75 c -176.05,-22 -319.08,-5.48 -319.08,-5.48 v 1077.95 h 216.62 c 143.17,0 281.27,-59.61 374.69,-168.1 65.76,-76.38 118.37,-183.88 118.37,-332.37 0,-362.99 -187.04,-506 -390.6,-572"
         style="fill:#ffffff;fill-opacity:1;fill-rule:nonzero;stroke:none"
         id="path16" /><path
         d="m 2566.14,2033.67 c 35.85,-18.05 58.75,4.38 58.75,4.38 0,0 524.57,478.78 760.89,754.51 210.2,246.66 223.9,662.34 -137.07,817.66 -360.97,155.31 -657.95,-182.72 -657.95,-182.72 -257.55,283.26 -647.34,268.92 -827.63,77.22 -180.28,-191.7 -117.32,-520.73 17.17,-703.84 126.25,-171.9 681.18,-666.5 765.29,-750.15 0,0 6.13,-6.4 20.55,-17.06"
         style="fill:#f14255;fill-opacity:1;fill-rule:nonzero;stroke:none"
         id="path18" /></g></g></svg>
