<?xml version="1.0" standalone="no"?><!DOCTYPE svg PUBLIC "-//W3C//DTD SVG 1.1//EN" "http://www.w3.org/Graphics/SVG/1.1/DTD/svg11.dtd"><svg t="1565771142011" class="icon" viewBox="0 0 1024 1024" version="1.1" xmlns="http://www.w3.org/2000/svg" p-id="2592" xmlns:xlink="http://www.w3.org/1999/xlink" width="128" height="128"><defs><style type="text/css"></style></defs><path d="M230.4 588.8c42.415 0 76.8-34.385 76.8-76.8s-34.385-76.8-76.8-76.8-76.8 34.385-76.8 76.8 34.385 76.8 76.8 76.8zM512 588.8c42.415 0 76.8-34.385 76.8-76.8s-34.385-76.8-76.8-76.8-76.8 34.385-76.8 76.8 34.385 76.8 76.8 76.8zM793.6 588.8c42.415 0 76.8-34.385 76.8-76.8s-34.385-76.8-76.8-76.8-76.8 34.385-76.8 76.8 34.385 76.8 76.8 76.8z" fill="#7f7f7f" p-id="2593"></path></svg>