<svg id="图层_1" data-name="图层 1" xmlns="http://www.w3.org/2000/svg" viewBox="0 0 400 400"><path d="M302.912,89.115c8.086,8.15,16.41,16.134,21.415,26.725,12.422,26.288,14.417,52.815.793,79.274a62.992,62.992,0,0,1-22.862,24.615,26.827,26.827,0,0,0-2.461,2.144c2.892.79,5.091,1.282,7.217,1.993a136.756,136.756,0,0,1,13.138,4.667,33.968,33.968,0,0,1,19.821,23.613,160.352,160.352,0,0,1,4.962,51.459c-.49,6.6-3.36,13.034-5.146,19.544l-1.07-.255c.234,3.623.467,7.246.757,11.744h31.512c.154,2.305.25,3.738.392,5.867a61.52,61.52,0,0,1-6.432.691c-37.656.058-75.313,0-112.969.167a56.6,56.6,0,0,0-14.235,1.942q-27.215,7.288-54.266,15.181c-10.37,3.026-20.745,1.966-31.205,1.153-20.75-1.611-41.517-3-62.267-4.6-8.8-.679-17.566-1.666-26.347-2.52-5.8-.563-9.61-3.407-10.78-9.339a11.863,11.863,0,0,0-1.035-2.206H29.693l-1.068-5.885h22.5c-1.336-7.467-2.444-13.931-3.654-20.376-3.657-19.464-7.427-38.908-11-58.387-1.321-7.206,1.034-10.04,8.419-10.059q50.733-.13,101.465-.017c5.33.008,7.507,1.713,9.108,6.792,1.1,3.477,1.918,7.041,2.973,10.981,4.92-.993,8.648.762,11.223,5.091a7.074,7.074,0,0,0,2.677,2.175c3.269,1.831,6.6,3.551,10.112,5.423,4.417-15.1,3.688-32.509,18.975-43.452-1.91-1.117-3.4-2.052-4.946-2.882-24.457-13.118-36.744-34.336-40.457-61.137-3.117-22.5,2.28-43.276,13.3-62.819l5.723,3.449c-.356.752-.678,1.522-1.072,2.253-12.244,22.7-16.01,46.368-7.97,71.306,7.075,21.941,20.809,37.579,43.131,44.9,8.979,2.946,17.936,5.968,26.969,8.738,12.253,3.758,23.261,1.529,32.921-7.147,1.672-1.5,3.977-2.318,6.029-3.375,7.521-3.873,15.447-7.112,22.515-11.682,19.565-12.65,29.7-31,30.149-54.3.532-27.876-9.657-50.922-32.023-68.135l3.237-6.023,1.89,1,.756.645ZM167.943,280.342l-1.886,0-.851-.892c-.531-4.861-1.075-9.717-6.614-13.271.976,4.427,1.47,8.067,2.66,11.462.568,1.618,2.459,2.772,3.751,4.136,8.729,1.508,15.962.234,16.668-2.841L170.239,277.7Zm3.132,46.858c.493,7.833,4.022,14.665,3,22.5h-5.483c-6.454-32.074-12.877-63.993-19.359-96.21H42.874c5.842,30.849,11.555,61.023,17.295,91.332,2.377.4,4.311.877,6.271,1.042q47.517,4,95.039,7.948a62.344,62.344,0,0,0,22.249-2.006c8.171-2.282,16.354-4.524,24.5-6.9q16.524-4.814,33-9.811c2.9-.872,5.94-1.8,4.038-6.662ZM194.2,284.5l-.571,1.928c-7.446,3.244-16,.126-22.686,2.788v29.54c8.361,0,15.841.195,23.3-.08a63.933,63.933,0,0,0,11.737-1.8c1.472-.335,2.7-1.741,4.04-2.658-6.2-1.346-10.68-3.571-12.125-9.751-.637-2.726-.352-4.955,2.94-6.1,2.7,4.755,5.948,8.978,12.681,10.039.556-3.926,1.056-7.456,1.639-11.574-9.407,4.085-15.445.92-17.459-8.155-4.724-21.291,15.666-42.2,37.134-37.971a43.656,43.656,0,0,1,9.513,2.924c13.937,6.306,27.786,12.806,41.662,19.246,3.846,1.785,7.676,3.6,11.485,5.392,2.095-4.1-3.958-10.211,3.838-12.333,4.706,4.86,3.074,11.337,5.3,16.822l15.1,7.606-1.624,5.342c-2.892-.914-5.474-1.413-7.774-2.507-15.311-7.279-30.552-14.7-45.843-22.027-1.974-.945-4.1-1.58-6.778-2.6.839,10.942-.664,20.683-4.943,30.026,15.606,8.975,30.447,18.328,47,24.07,5.956,2.066,12.712,2.055,19.136,2.425,2.294.132,4.857-1.091,7-2.247,7.234-3.9,10.035-10.626,9.994-18.334-.062-11.811-.291-23.661-1.367-35.411-.613-6.692-2.7-13.326-4.752-19.789-2.241-7.067-7.428-11.923-14.253-14.477-7.753-2.9-15.746-5.163-23.669-7.588a5.039,5.039,0,0,0-3.389.168c-6.823,3.373-13.978,6.293-20.257,10.5-12.823,8.6-25.987,10.09-40.234,4.388-6.433-2.575-13.047-4.7-18.99-6.815-7.008,3.375-12.1,7.636-14.22,13.994-3.4,10.177-5.92,20.649-8.812,31l1.271-.025Zm26.14-4.3c.99,2.609,2.082,4.913,2.741,7.334,1.82,6.683,4.567,9.2,11.454,9.7,2.469.183,4.975-.193,7.463-.173,4.92.039,7.447-2.611,8.945-7.08,2.663-7.946,2.527-16,1.727-24.723-2.219-1.313-4.529-2.893-7.016-4.112-7.019-3.44-14.48-5.1-22.25-3.967-12.182,1.777-22.645,19.617-18.572,31.368a29.069,29.069,0,0,0,2.206,4.153C214.474,291.62,213.183,282.252,220.337,280.2Zm111.731,48.578c-9.377,4.606-18.346,4.5-27.1,1.8-8.518-2.629-16.727-6.261-23.9-9.005-12.985,3.685-23.59-1.053-35.142-5.3-6.725,2.094-14.181,1.346-21.993-1.844.169,2.436.3,4.353.465,6.688,1.881.175,3.493.414,5.111.46,4.829.138,9.664.1,14.489.317,5.479.246,7.73,2.614,8.047,8.1.084,1.446.191,2.891.3,4.566h80.023C332.277,332.737,332.2,331.182,332.068,328.781Zm-79.89-25.053c-5.825-1.3-10.673,1.783-15.444.948-4.922-.861-9.71-2.488-14.954-3.886.381,2.759.819,5.931,1.307,9.46C233.288,310.866,243.265,312.883,252.178,303.728Zm20.146,13.378.135-.606-19.965-11.22c-.769,2.987-1.409,5.473-1.98,7.693Zm-54.41.145-1.118-.76-4.07,4.3.655,1,4.533-.874Z" style="fill:#080b0e"/><path d="M298.933,86.405,295.7,92.428H285.262c-.814.965-1.673,1.971-2.52,2.987-4.2,5.041-7.51,5.618-12.812,1.934a49.1,49.1,0,0,1-6.468-5.432c-2.834-2.806-5.855-3.585-9.73-1.541-2.933,4.864-5.789,10.241-12.836,11.944-1.748-1.62-3.682-3.384-5.583-5.181-1.816-1.717-3.6-3.468-6.23-6.009-1.6,3.326-2.795,5.421-3.644,7.649-4.012,10.517-10.619,12.887-20.23,7.155-2.253-1.344-4.5-2.7-6.787-4.08-8.055,2.48-14.419,9.191-23.375,8.015l-5.723-3.449c-2.391-7.668-4.262-15.455-3.284-23.541.674-5.582,1.312-11.289,3.024-16.6,2.623-8.135,8.362-9.484,15.016-4.163,2.08,1.663,3.949,3.6,6.1,5.162a52.189,52.189,0,0,0,6.066,3.2c.367-3.114.644-5.3.877-7.487.7-6.6,1.178-13.236,2.151-19.8.64-4.316,2.905-7.77,7.753-9.281,7.812,2.168,12.02,8.579,16.245,14.971,3.936,5.7,6.135,13.057,14.47,15.78l1.271-4.766.758-3c.574-1.722,1.023-3.5,1.746-5.155,2.2-5.048,4.9-6.594,10.49-6.192l3.672,1.477C261.7,52.06,264.4,60.8,273.506,63.211a35.253,35.253,0,0,1,2.5-4.965,41.421,41.421,0,0,1,3.969-4.223l4.033.812,6.906,7.087.946,2.256-.1.258.282.157,1.086,2.3,2.658,5.64.1,1.367Q297.41,80.153,298.933,86.405ZM253.584,62.657c-4.066-1.51-6.261-.206-7.9,2.164a24.8,24.8,0,0,0-2.808,5.2,6.873,6.873,0,0,1-6.217,4.914c-1.634.158-3.24.6-4.687.886C223.8,74.793,220,65.807,211.737,64.81c-4.19,5.891-4.392,14.395-13.122,16.612.563,2.706,1.033,4.971,1.573,7.566,4.275-1.282,7.882-2.02,11.2-3.437,5.117-2.187,9.821-1.788,14.9.3a12.423,12.423,0,0,0,8.091.2c4.17-1.431,7.988-3.886,13.071-6.481,1.794.416,4.657,1.021,7.487,1.749,5.3,1.363,10.206.016,14.759-2.49,1.238-.682,1.7-2.765,2.756-4.607l-6.807-3.36-5.07.951Z" style="fill:#feb508"/><path d="M241,43.943c-3.76-2.21-4.844-4.715-4.068-9.067.63-3.532,3.1-5.116,6.249-5.52,3.382-.434,5.889,1.458,7,4.493.64,1.745.238,3.872.305,5.828C248.383,43.461,245.2,44.832,241,43.943Z" style="fill:#feb508"/><path d="M239.011,59.9l-2.018,0q-.5-2-1-4.006l3.771,1Q239.391,58.394,239.011,59.9Z" style="fill:#fcfcfc"/><polygon points="292.043 64.593 291.761 64.436 291.864 64.178 292.043 64.593" style="fill:#f3f3f3"/><path d="M302.912,89.115l-1.333-1.06Z" style="fill:#f3f3f3"/><path d="M175.047,109.869c8.956,1.176,15.32-5.535,23.375-8.015,2.29,1.377,4.534,2.736,6.787,4.08,9.611,5.732,16.218,3.362,20.23-7.155.849-2.228,2.046-4.323,3.644-7.649,2.631,2.541,4.414,4.292,6.23,6.009,1.9,1.8,3.835,3.561,5.583,5.181,7.047-1.7,9.9-7.08,12.836-11.944,3.875-2.044,6.9-1.265,9.73,1.541a49.1,49.1,0,0,0,6.468,5.432c5.3,3.684,8.612,3.107,12.812-1.934.847-1.016,1.706-2.022,2.52-2.987H295.7c22.366,17.213,32.555,40.259,32.023,68.135-.444,23.3-10.584,41.652-30.149,54.3-7.068,4.57-14.994,7.809-22.515,11.682-2.052,1.057-4.357,1.873-6.029,3.375-9.66,8.676-20.668,10.905-32.921,7.147-9.033-2.77-17.99-5.792-26.969-8.738-22.322-7.324-36.056-22.962-43.131-44.9-8.04-24.938-4.274-48.608,7.97-71.306C174.369,111.391,174.691,110.621,175.047,109.869Zm27.6,62.108c-5,3.057-4.1,12.656,1.606,21.527,7.645,11.886,24.483,14.636,37.026,6.047,9.539-6.532,12.344-23.88,4.794-34.466-3.89,3.05-7.151,7.452-12.73,7.837-5.117.353-10.174,1.627-15.291,1.931C212.828,175.164,207.358,175.961,202.649,171.977Zm99.815-19.716c-5.274-6.982-2.6-15.13-4.69-23.475-1.417,1.625-2.553,2.372-2.845,3.366a67.513,67.513,0,0,0-2.238,9.683,16.691,16.691,0,0,0,3.054,12.3c2.615,3.642,6.362,4.659,10.612,3.842,3.538-.68,6.357-4.037,6.943-8.258.506-3.654-.368-6.789-3.963-8.84C305.688,143.882,309.979,151.359,302.464,152.261Zm15.195,21.594c-4.7-3.566-1.4-9.619-5.717-12.225-5.385,3.948-4.779,13.709.831,16.955,3.2,1.851,7,1.584,9.183-.647,2.588-2.641,3.618-7.3,1.881-10.087-.71-1.139-2.221-1.779-3.882-3.035C319.089,168.227,318.466,170.679,317.659,173.855ZM239.75,155.873c4.16.837,6.1-.981,7.425-4.683l-5.735-5.455-4.717,5.976Zm-33.344.675-5-5.424-1.852.328c-1.219,1.892-3.34,3.77-3.369,5.68-.022,1.516,2.517,3.07,4.205,4.922Z" style="fill:#fcfcfc"/><path d="M171.075,327.2l74.187,1.242c1.9,4.864-1.143,5.79-4.038,6.662q-16.481,4.965-33,9.811c-8.146,2.372-16.329,4.614-24.5,6.9a62.344,62.344,0,0,1-22.249,2.006q-47.516-4.026-95.039-7.948c-1.96-.165-3.894-.638-6.271-1.042-5.74-30.309-11.453-60.483-17.295-91.332H149.232c6.482,32.217,12.905,64.136,19.359,96.21h5.483C175.1,341.865,171.568,335.033,171.075,327.2ZM106.784,305c-1.55,3.709-2.6,8.189-7.026,6.748-3.109-1.011-5.477-4.3-8.176-6.575-3.416,2.484-3.469,4.18-.266,8.428,4.066,5.392,11.3,6.127,16.7,1.7,2.892-2.37,4.113-7.659,2.045-10.111Zm-18.272-11.65c-3.012,3.406-3.036,5.67-.185,7.119,2.817,1.431,4.585-.173,6.1-3.747Zm13.884,2.941c3.094,5.329,3.33,5.4,7.743,2.951-.195-1.462-.416-3.113-.8-5.983Z" style="fill:#aeadae"/><path d="M194.2,284.5l-4.967-4.045-1.271.025c2.892-10.347,5.411-20.819,8.812-31,2.124-6.358,7.212-10.619,14.22-13.994,5.943,2.118,12.557,4.24,18.99,6.815,14.247,5.7,27.411,4.214,40.234-4.388,6.279-4.212,13.434-7.132,20.257-10.5a5.039,5.039,0,0,1,3.389-.168c7.923,2.425,15.916,4.688,23.669,7.588,6.825,2.554,12.012,7.41,14.253,14.477,2.048,6.463,4.139,13.1,4.752,19.789,1.076,11.75,1.3,23.6,1.367,35.411.041,7.708-2.76,14.435-9.994,18.334-2.144,1.156-4.707,2.379-7,2.247-6.424-.37-13.18-.359-19.136-2.425-16.557-5.742-31.4-15.1-47-24.07,4.279-9.343,5.782-19.084,4.943-30.026,2.681,1.016,4.8,1.651,6.778,2.6,15.291,7.324,30.532,14.748,45.843,22.027,2.3,1.094,4.882,1.593,7.774,2.507l1.624-5.342-15.1-7.606c-2.227-5.485-.6-11.962-5.3-16.822-7.8,2.122-1.743,8.231-3.838,12.333-3.809-1.789-7.639-3.607-11.485-5.392-13.876-6.44-27.725-12.94-41.662-19.246a43.656,43.656,0,0,0-9.513-2.924c-21.468-4.225-41.858,16.68-37.134,37.971,2.014,9.075,8.052,12.24,17.459,8.155-.583,4.118-1.083,7.648-1.639,11.574-6.733-1.061-9.985-5.284-12.681-10.039-3.292,1.147-3.577,3.376-2.94,6.1,1.445,6.18,5.928,8.4,12.125,9.751-1.34.917-2.568,2.323-4.04,2.658a63.933,63.933,0,0,1-11.737,1.8c-7.462.275-14.942.08-23.3.08v-29.54c6.687-2.662,15.24.456,22.686-2.788Z" style="fill:#3fb2fc"/><path d="M220.337,280.2c-7.154,2.049-5.863,11.417-13.3,12.5a29.069,29.069,0,0,1-2.206-4.153c-4.073-11.751,6.39-29.591,18.572-31.368,7.77-1.133,15.231.527,22.25,3.967,2.487,1.219,4.8,2.8,7.016,4.112.8,8.723.936,16.777-1.727,24.723-1.5,4.469-4.025,7.119-8.945,7.08-2.488-.02-4.994.356-7.463.173-6.887-.509-9.634-3.021-11.454-9.7C222.419,285.116,221.327,282.812,220.337,280.2Z" style="fill:#fcfcfc"/><path d="M332.068,328.781c.127,2.4.209,3.956.306,5.785H252.351c-.112-1.675-.219-3.12-.3-4.566-.317-5.484-2.568-7.852-8.047-8.1-4.825-.217-9.66-.179-14.489-.317-1.618-.046-3.23-.285-5.111-.46-.163-2.335-.3-4.252-.465-6.688,7.812,3.19,15.268,3.938,21.993,1.844,11.552,4.244,22.157,8.982,35.142,5.3,7.173,2.744,15.382,6.376,23.9,9.005C313.722,333.285,322.691,333.387,332.068,328.781Z" style="fill:#3fb2fc"/><path d="M252.178,303.728c-8.913,9.155-18.89,7.138-29.091,6.522-.488-3.529-.926-6.7-1.307-9.46,5.244,1.4,10.032,3.025,14.954,3.886C241.505,305.511,246.353,302.43,252.178,303.728Z" style="fill:#3fb2fc"/><path d="M272.324,317.106l-21.81-4.133c.571-2.22,1.211-4.706,1.98-7.693l19.965,11.22Z" style="fill:#3fb2fc"/><path d="M167.943,280.342l-1.886,0Z" style="fill:#dedede"/><path d="M253.584,62.657l6.987,9.164,5.07-.951,6.807,3.36c-1.051,1.842-1.518,3.925-2.756,4.607-4.553,2.506-9.459,3.853-14.759,2.49-2.83-.728-5.693-1.333-7.487-1.749-5.083,2.595-8.9,5.05-13.071,6.481a12.423,12.423,0,0,1-8.091-.2c-5.077-2.091-9.781-2.49-14.9-.3-3.316,1.417-6.923,2.155-11.2,3.437-.54-2.595-1.01-4.86-1.573-7.566,8.73-2.217,8.932-10.721,13.122-16.612,8.265,1,12.061,9.983,20.239,11.012,1.447-.283,3.053-.728,4.687-.886a6.873,6.873,0,0,0,6.217-4.914,24.8,24.8,0,0,1,2.808-5.2C247.323,62.451,249.518,61.147,253.584,62.657Z" style="fill:#feed07"/><path d="M202.649,171.977c4.709,3.984,10.179,3.187,15.405,2.876,5.117-.3,10.174-1.578,15.291-1.931,5.579-.385,8.84-4.787,12.73-7.837,7.55,10.586,4.745,27.934-4.794,34.466-12.543,8.589-29.381,5.839-37.026-6.047C198.549,184.633,197.645,175.034,202.649,171.977Zm41.036,5.874-36.579,4.815c1.991,11.279,9.56,16.228,22.531,14.363C239.688,195.584,244.946,188.115,243.685,177.851Z" style="fill:#080b0e"/><path d="M302.464,152.261c7.515-.9,3.224-8.379,6.873-11.383,3.6,2.051,4.469,5.186,3.963,8.84-.586,4.221-3.405,7.578-6.943,8.258-4.25.817-8-.2-10.612-3.842a16.691,16.691,0,0,1-3.054-12.3,67.513,67.513,0,0,1,2.238-9.683c.292-.994,1.428-1.741,2.845-3.366C299.865,137.131,297.19,145.279,302.464,152.261Z" style="fill:#080b0e"/><path d="M317.659,173.855c.807-3.176,1.43-5.628,2.3-9.039,1.661,1.256,3.172,1.9,3.882,3.035,1.737,2.784.707,7.446-1.881,10.087-2.187,2.231-5.983,2.5-9.183.647-5.61-3.246-6.216-13.007-.831-16.955C316.258,164.236,312.956,170.289,317.659,173.855Z" style="fill:#080b0e"/><path d="M239.75,155.873l-3.027-4.162,4.717-5.976,5.735,5.455C245.847,154.892,243.91,156.71,239.75,155.873Z" style="fill:#080b0e"/><path d="M206.406,156.548l-6.013,5.506c-1.688-1.852-4.227-3.406-4.205-4.922.029-1.91,2.15-3.788,3.369-5.68l1.852-.328Z" style="fill:#080b0e"/><path d="M106.784,305l3.278.188c2.068,2.452.847,7.741-2.045,10.111-5.4,4.429-12.635,3.694-16.7-1.7-3.2-4.248-3.15-5.944.266-8.428,2.7,2.273,5.067,5.564,8.176,6.575C104.187,313.187,105.234,308.707,106.784,305Z" style="fill:#fcfcfc"/><path d="M88.512,293.348l5.912,3.372c-1.512,3.574-3.28,5.178-6.1,3.747C85.476,299.018,85.5,296.754,88.512,293.348Z" style="fill:#f7f7f8"/><path d="M102.4,296.289l6.942-3.032c.385,2.87.606,4.521.8,5.983C105.726,301.689,105.49,301.618,102.4,296.289Z" style="fill:#f7f7f8"/><path d="M243.685,177.851c1.261,10.264-4,17.733-14.048,19.178-12.971,1.865-20.54-3.084-22.531-14.363Z" style="fill:#f7f7f8"/></svg>