<svg xmlns="http://www.w3.org/2000/svg" viewBox="0 0 256 256"><defs><style>.cls-1,.cls-2{fill:none;stroke:currentColor;stroke-width:12px;}.cls-1{stroke-miterlimit:10;}.cls-2{stroke-linejoin:round;}.cls-3{fill:currentColor;}</style></defs><g id="输入"><path class="cls-3" d="M224,82v92a18.053,18.053,0,0,1-18,18H66c-9.9,0-18-6.1-18-16H200a8.024,8.024,0,0,0,8-8V88a8.024,8.024,0,0,0-8-8H48c0-9.9,8.1-16,18-16H206A18.053,18.053,0,0,1,224,82Z"/><path class="cls-1" d="M48,176c0,9.9,8.1,16,18,16H206a18.053,18.053,0,0,0,18-18V82a18.053,18.053,0,0,0-18-18H66c-9.9,0-18,6.1-18,16H200a8.024,8.024,0,0,1,8,8v80a8.024,8.024,0,0,1-8,8Z"/><polygon class="cls-3" points="176 128 136 148 136 136 136 120 136 108 176 128"/><rect class="cls-3" x="32" y="120" width="104" height="16"/><polygon class="cls-2" points="136 136 136 148 176 128 136 108 136 120 136 136"/><polyline class="cls-1" points="136 136 32 136 32 120 136 120"/></g></svg>