<svg xmlns="http://www.w3.org/2000/svg" viewBox="0 0 256 256"><defs><style>.cls-1,.cls-2{fill:none;stroke:currentColor;stroke-width:12px;}.cls-1{stroke-miterlimit:10;}.cls-2{stroke-linejoin:round;}.cls-3{fill:currentColor;}</style></defs><g id="输出"><path class="cls-3" d="M32,82v92a18.053,18.053,0,0,0,18,18H190c9.9,0,18-6.1,18-16H56a8.024,8.024,0,0,1-8-8V88a8.024,8.024,0,0,1,8-8H208c0-9.9-8.1-16-18-16H50A18.053,18.053,0,0,0,32,82Z"/><path class="cls-1" d="M208,176c0,9.9-8.1,16-18,16H50a18.053,18.053,0,0,1-18-18V82A18.053,18.053,0,0,1,50,64H190c9.9,0,18,6.1,18,16H56a8.024,8.024,0,0,0-8,8v80a8.024,8.024,0,0,0,8,8Z"/><polygon class="cls-3" points="224 128 184 148 184 136 184 120 184 108 224 128"/><rect class="cls-3" x="80" y="120" width="104" height="16"/><polygon class="cls-2" points="184 136 184 148 224 128 184 108 184 120 184 136"/><polyline class="cls-1" points="184 136 80 136 80 120 184 120"/></g></svg>