<?xml version="1.0" encoding="utf-8"?>
<!-- Generator: Adobe Illustrator 21.0.0, SVG Export Plug-In . SVG Version: 6.00 Build 0)  -->
<svg version="1.1" id="图层_1" xmlns="http://www.w3.org/2000/svg" xmlns:xlink="http://www.w3.org/1999/xlink" x="0px" y="0px"
	 viewBox="0 0 768 768" style="enable-background:new 0 0 768 768;" xml:space="preserve">
<style type="text/css">
	.st0{fill:#7F7F7F;}
	.st1{fill:#E03F3F;}
	.st2{fill:#3F3F3F;}
</style>
<path class="st0" d="M92.444,206.222c3.927,0,7.111-3.184,7.111-7.111l0,0v-56.889c-0.001-3.927-3.186-7.11-7.114-7.109
	c-3.925,0.001-7.107,3.183-7.109,7.109v56.889C85.333,203.038,88.517,206.222,92.444,206.222L92.444,206.222z M163.556,206.222
	c3.927,0,7.111-3.184,7.111-7.111l0,0v-56.889c0-3.927-3.184-7.111-7.111-7.111s-7.111,3.184-7.111,7.111v56.889
	C156.444,203.038,159.628,206.222,163.556,206.222L163.556,206.222z M128,206.222c3.927,0,7.111-3.184,7.111-7.111l0,0v-56.889
	c-0.001-3.927-3.186-7.11-7.114-7.109c-3.925,0.001-7.107,3.183-7.109,7.109v56.889C120.889,203.038,124.073,206.222,128,206.222z
	 M213.333,42.667h-42.667V28.444c0-7.855-6.368-14.222-14.222-14.222l0,0H99.556c-7.855,0-14.222,6.368-14.222,14.222v14.222H42.667
	c-7.855,0-14.222,6.368-14.222,14.222v14.222c0,7.855,6.368,14.222,14.222,14.222h170.667c7.855,0,14.222-6.368,14.222-14.222v0
	V56.889C227.556,49.034,221.188,42.667,213.333,42.667L213.333,42.667L213.333,42.667z M106.667,28.444h42.667
	c3.927,0,7.111,3.184,7.111,7.111s-3.184,7.111-7.111,7.111h-42.667c-3.927-0.001-7.11-3.186-7.109-7.114
	C99.559,31.628,102.741,28.446,106.667,28.444z M206.222,71.111H49.778c-3.927-0.001-7.11-3.186-7.109-7.114
	c0.001-3.925,3.183-7.107,7.109-7.109h156.444c3.927,0.001,7.11,3.186,7.109,7.114C213.329,67.928,210.148,71.11,206.222,71.111z
	 M42.667,220.444c0,11.782,9.551,21.333,21.333,21.333h128c11.782,0,21.333-9.551,21.333-21.333V99.556H42.667V220.444z
	 M56.889,113.778h142.222v99.556c0,7.855-6.367,14.222-14.222,14.222h0H71.111c-7.855,0-14.222-6.368-14.222-14.222l0,0
	L56.889,113.778z"/>
<path class="st1" d="M92.444,462.222c3.927,0,7.111-3.184,7.111-7.111l0,0v-56.889c-0.001-3.927-3.186-7.11-7.114-7.109
	c-3.925,0.001-7.107,3.183-7.109,7.109v56.889C85.333,459.038,88.517,462.222,92.444,462.222L92.444,462.222z M163.556,462.222
	c3.927,0,7.111-3.184,7.111-7.111l0,0v-56.889c0-3.927-3.184-7.111-7.111-7.111s-7.111,3.184-7.111,7.111v56.889
	C156.444,459.038,159.628,462.222,163.556,462.222L163.556,462.222z M128,462.222c3.927,0,7.111-3.184,7.111-7.111l0,0v-56.889
	c-0.001-3.927-3.186-7.11-7.114-7.109c-3.925,0.001-7.107,3.183-7.109,7.109v56.889C120.889,459.038,124.073,462.222,128,462.222z
	 M213.333,298.667h-42.667v-14.222c0-7.855-6.368-14.222-14.222-14.222l0,0H99.556c-7.855,0-14.222,6.367-14.222,14.222v14.222
	H42.667c-7.855,0-14.222,6.368-14.222,14.222v14.222c0,7.855,6.368,14.222,14.222,14.222h170.667
	c7.855,0,14.222-6.368,14.222-14.222l0,0v-14.222C227.556,305.034,221.188,298.667,213.333,298.667L213.333,298.667L213.333,298.667
	z M106.667,284.444h42.667c3.927,0,7.111,3.184,7.111,7.111c0,3.927-3.184,7.111-7.111,7.111h-42.667
	c-3.927-0.001-7.11-3.186-7.109-7.114C99.559,287.628,102.741,284.446,106.667,284.444z M206.222,327.111H49.778
	c-3.927-0.001-7.11-3.186-7.109-7.114c0.001-3.925,3.183-7.107,7.109-7.109h156.444c3.927,0.001,7.11,3.186,7.109,7.114
	C213.329,323.928,210.148,327.11,206.222,327.111z M42.667,476.444c0,11.782,9.551,21.333,21.333,21.333h128
	c11.782,0,21.333-9.551,21.333-21.333V355.556H42.667V476.444z M56.889,369.778h142.222v99.556c0,7.855-6.367,14.222-14.222,14.222
	h0H71.111c-7.855,0-14.222-6.368-14.222-14.222l0,0L56.889,369.778z"/>
<g>
	<path class="st1" d="M63.313,605.313v65.508c0,3.243,0.068,6.045,0.205,8.408c0.136,2.364,0.4,4.775,0.791,7.236H46.145
		c0.39-2.539,0.654-4.971,0.791-7.295c0.136-2.323,0.205-5.106,0.205-8.35v-65.508H30.91c-7.031,0-12.5,0.273-16.406,0.82v-16.055
		c2.148,0.313,4.55,0.527,7.207,0.645c2.656,0.117,5.684,0.176,9.082,0.176h47.52c4.336,0,7.793-0.059,10.371-0.176
		s5-0.331,7.266-0.645v16.055c-2.227-0.272-4.639-0.478-7.236-0.615c-2.598-0.137-6.064-0.205-10.4-0.205H63.313z"/>
	<path class="st1" d="M97.766,697.598h60.469v6.855H97.766V697.598z"/>
	<path class="st1" d="M208.859,605.313v65.508c0,3.243,0.067,6.045,0.205,8.408c0.137,2.364,0.4,4.775,0.791,7.236h-18.164
		c0.39-2.539,0.653-4.971,0.791-7.295c0.137-2.323,0.205-5.106,0.205-8.35v-65.508h-16.23c-7.031,0-12.501,0.273-16.406,0.82
		v-16.055c2.147,0.313,4.55,0.527,7.207,0.645c2.656,0.117,5.684,0.176,9.082,0.176h47.52c4.336,0,7.793-0.059,10.371-0.176
		s5-0.331,7.266-0.645v16.055c-2.227-0.272-4.639-0.478-7.236-0.615c-2.599-0.137-6.064-0.205-10.4-0.205H208.859z"/>
</g>
<path class="st0" d="M405.333,218.667c0,5.333,4.8,10.667,10.667,10.667h21.333c5.867,0,10.667-5.867,10.667-10.667V37.333
	c0-5.333-4.8-10.667-10.667-10.667H416c-5.867,0-10.667,5.867-10.667,10.667V218.667z M320,218.667
	c0,5.333,4.8,10.667,10.667,10.667H352c5.867,0,10.667-5.867,10.667-10.667V37.333c0-5.333-4.8-10.667-10.667-10.667h-21.333
	C324.8,26.667,320,32.533,320,37.333V218.667z"/>
<path class="st1" d="M405.333,474.667c0,5.333,4.8,10.667,10.667,10.667h21.333c5.867,0,10.667-5.867,10.667-10.667V293.333
	c0-5.333-4.8-10.667-10.667-10.667H416c-5.867,0-10.667,5.867-10.667,10.667V474.667z M320,474.667
	c0,5.333,4.8,10.667,10.667,10.667H352c5.867,0,10.667-5.867,10.667-10.667V293.333c0-5.333-4.8-10.667-10.667-10.667h-21.333
	c-5.867,0-10.667,5.867-10.667,10.667V474.667z"/>
<path class="st2" d="M405.333,730.667c0,5.333,4.8,10.667,10.667,10.667h21.333c5.867,0,10.667-5.867,10.667-10.667V549.333
	c0-5.333-4.8-10.667-10.667-10.667H416c-5.867,0-10.667,5.867-10.667,10.667V730.667z M320,730.667
	c0,5.333,4.8,10.667,10.667,10.667H352c5.867,0,10.667-5.867,10.667-10.667V549.333c0-5.333-4.8-10.667-10.667-10.667h-21.333
	c-5.867,0-10.667,5.867-10.667,10.667V730.667z"/>
<rect x="560" y="304" class="st1" width="160" height="160"/>
<rect x="560" y="48" class="st0" width="160" height="160"/>
<rect x="560" y="558.271" class="st2" width="160" height="160"/>
</svg>
