<?xml version="1.0" standalone="no"?><!DOCTYPE svg PUBLIC "-//W3C//DTD SVG 1.1//EN" "http://www.w3.org/Graphics/SVG/1.1/DTD/svg11.dtd"><svg t="1695633639298" class="icon" viewBox="0 0 1024 1024" version="1.1" xmlns="http://www.w3.org/2000/svg" p-id="14767" xmlns:xlink="http://www.w3.org/1999/xlink" width="200" height="200"><path d="M260.481024 467.247104l426.01472-422.378496c21.331968-21.081088 55.660544-21.081088 77.014016 0 21.060608 20.831232 21.269504 54.80448 0.459776 75.886592-0.166912 0.146432-0.314368 0.303104-0.459776 0.449536l-425.982976 422.41024c-21.353472 21.082112-55.671808 21.082112-77.02528 0-21.092352-20.800512-21.321728-54.762496-0.52224-75.854848C260.146176 467.592192 260.314112 467.42528 260.481024 467.247104zM339.647488 482.228224l421.773312 418.210816c20.914176 20.66432 21.143552 54.34368 0.480256 75.2384-0.146432 0.166912-0.313344 0.334848-0.480256 0.48128-21.144576 20.9152-55.223296 20.9152-76.388352 0L263.196672 557.988864c-20.903936-20.65408-21.112832-54.334464-0.470016-75.24864 0.156672-0.156672 0.313344-0.313344 0.470016-0.470016 21.17632-20.893696 55.212032-20.893696 76.388352 0L339.647488 482.228224z" p-id="14768"></path></svg>