<?xml version="1.0" standalone="no"?><!DOCTYPE svg PUBLIC "-//W3C//DTD SVG 1.1//EN" "http://www.w3.org/Graphics/SVG/1.1/DTD/svg11.dtd"><svg t="1699026722263" class="icon" viewBox="0 0 1024 1024" version="1.1" xmlns="http://www.w3.org/2000/svg" p-id="4026" xmlns:xlink="http://www.w3.org/1999/xlink" width="200" height="200"><path d="M845.937778 582.485333c-3.982222 22.300444-16.839111 36.693333-32.768 36.693334h-3.413334c-46.08 0-83.569778 39.651556-83.569777 88.462222 0 15.815111 7.224889 33.564444 7.281777 33.678222a48.071111 48.071111 0 0 1-14.791111 56.092445l-0.967111 0.739555-84.650666 49.834667-1.080889 0.455111a42.552889 42.552889 0 0 1-17.92 3.811555 47.160889 47.160889 0 0 1-34.474667-14.848c-9.272889-10.126222-41.301333-39.082667-65.991111-39.082666-24.803556 0-57.059556 29.525333-66.332445 39.822222a47.217778 47.217778 0 0 1-34.702222 15.189333 42.496 42.496 0 0 1-17.635555-3.697777l-1.137778-0.512-87.608889-50.915556-1.024-0.796444a47.957333 47.957333 0 0 1-14.904889-56.035556 104.675556 104.675556 0 0 0 7.338667-33.735111c0-48.810667-37.546667-88.462222-83.569778-88.462222h-3.470222c-15.928889 0-28.785778-14.392889-32.768-36.693334A485.091556 485.091556 0 0 1 170.666667 511.715556c0-30.321778 6.826667-69.12 7.111111-70.769778 3.982222-22.300444 16.896-36.693333 32.768-36.693334h3.470222c46.08 0 83.569778-39.651556 83.569778-88.462222 0-15.815111-7.224889-33.564444-7.281778-33.678222a48.128 48.128 0 0 1 14.734222-56.092444l0.967111-0.739556 83.057778-49.152 1.024-0.568889a42.097778 42.097778 0 0 1 17.92-3.811555c13.255111 0 26.225778 5.802667 34.702222 15.530666 11.776 13.596444 43.804444 41.585778 67.413334 41.585778 25.6 0 58.424889-31.402667 67.868444-42.382222A46.421333 46.421333 0 0 1 612.920889 170.666667c6.257778 0 12.174222 1.251556 17.635555 3.754666l1.024 0.455111 86.072889 50.403556 1.024 0.739556c16.668444 12.288 23.04 36.408889 14.791111 56.035555a106.552889 106.552889 0 0 0-7.281777 33.735111c0 48.810667 37.489778 88.462222 83.569777 88.462222H813.169778c15.928889 0 28.842667 14.392889 32.824889 36.693334 0 0.398222 7.111111 39.651556 7.111111 70.769778 0 30.492444-6.826667 69.12-7.111111 70.769777z m-49.720889-70.769777c0-10.808889-1.137778-24.689778-3.072-39.594667-0.568889-4.551111-1.137778-8.704-1.706667-12.231111-69.404444-9.272889-122.140444-70.883556-122.140444-144.099556a142.222222 142.222222 0 0 1 8.704-47.786666l-63.431111-37.148445c-27.875556 29.866667-64.967111 54.897778-104.448 54.897778-38.001778 0-76.231111-24.746667-103.879111-54.044445l-60.529778 36.124445c4.949333 13.824 8.760889 30.151111 8.760889 47.957333 0 73.216-52.736 134.826667-122.197334 144.099556A367.957333 367.957333 0 0 0 227.555556 511.715556c0 15.587556 2.275556 35.555556 4.778666 51.768888 69.404444 9.329778 122.140444 70.940444 122.140445 144.156445 0 17.92-3.754667 34.076444-8.647111 47.786667l65.365333 38.001777c27.534222-28.273778 64.056889-51.996444 102.4-51.996444 38.115556 0 74.524444 23.381333 101.888 51.2l62.577778-37.091556a150.926222 150.926222 0 0 1-8.419556-38.684444c-0.227556-4.437333-0.227556-4.437333-0.341333-9.216 0-73.216 52.736-134.826667 122.140444-144.099556 2.56-16.213333 4.778667-36.181333 4.778667-51.825777z" fill="currentColor" p-id="4027"></path><path d="M617.073778 512.170667a99.555556 99.555556 0 0 1-199.111111 0 99.555556 99.555556 0 0 1 199.111111 0z m-56.888889 0a42.666667 42.666667 0 0 0-85.333333 0 42.666667 42.666667 0 0 0 85.333333 0z" fill="currentColor" p-id="4028"></path></svg>