<?xml version="1.0" standalone="no"?><!DOCTYPE svg PUBLIC "-//W3C//DTD SVG 1.1//EN" "http://www.w3.org/Graphics/SVG/1.1/DTD/svg11.dtd"><svg t="1705177362489" class="icon" viewBox="-64 -16 1066 1066" version="1.1" xmlns="http://www.w3.org/2000/svg" p-id="24011" xmlns:xlink="http://www.w3.org/1999/xlink" width="200" height="200"><path d="M718.933333 885.333333H198.4c-23.466667 0-42.666667-19.2-42.666667-42.666666v-661.333334c0-23.466667 19.2-42.666667 42.666667-42.666666h561.066667c23.466667 0 42.666667 19.2 42.666666 42.666666v215.466667c0 12.8 8.533333 21.333333 21.333334 21.333333s21.333333-8.533333 21.333333-21.333333V181.333333c0-46.933333-38.4-85.333333-85.333333-85.333333H198.4c-46.933333 0-85.333333 38.4-85.333333 85.333333v661.333334c0 46.933333 38.4 85.333333 85.333333 85.333333h520.533333c12.8 0 21.333333-8.533333 21.333334-21.333333s-8.533333-21.333333-21.333334-21.333334z" fill="currentColor" p-id="24012"></path><path d="M699.733333 631.466667c0-12.8-8.533333-21.333333-21.333333-21.333334s-21.333333 8.533333-21.333333 21.333334c0 57.6 38.4 108.8 93.866666 125.866666h6.4c8.533333 0 17.066667-6.4 21.333334-14.933333 4.266667-10.666667-2.133333-23.466667-14.933334-25.6-38.4-10.666667-64-46.933333-64-85.333333z" fill="currentColor" p-id="24013"></path><path d="M989.866667 844.8L915.2 768c27.733333-34.133333 42.666667-74.666667 42.666667-119.466667 0-104.533333-85.333333-189.866667-189.866667-189.866666s-189.866667 85.333333-189.866667 189.866666 85.333333 189.866667 189.866667 189.866667c21.333333 0 40.533333-4.266667 61.866667-10.666667 10.666667-4.266667 17.066667-14.933333 12.8-27.733333-4.266667-10.666667-14.933333-17.066667-27.733334-12.8-14.933333 4.266667-32 8.533333-46.933333 8.533333-81.066667 0-147.2-66.133333-147.2-147.2 0-81.066667 66.133333-147.2 147.2-147.2 81.066667 0 147.2 66.133333 147.2 147.2 0 40.533333-14.933333 76.8-44.8 106.666667-8.533333 8.533333-8.533333 21.333333 0 29.866667 2.133333 2.133333 2.133333 2.133333 4.266667 2.133333v2.133333l83.2 87.466667c4.266667 4.266667 10.666667 6.4 14.933333 6.4 4.266667 0 10.666667-2.133333 14.933333-6.4 8.533333-8.533333 10.666667-23.466667 2.133334-32zM659.2 247.466667H268.8c-12.8 0-21.333333 8.533333-21.333333 21.333333s8.533333 21.333333 21.333333 21.333333h390.4c12.8 0 21.333333-8.533333 21.333333-21.333333s-10.666667-21.333333-21.333333-21.333333zM680.533333 435.2c0-12.8-8.533333-21.333333-21.333333-21.333333H268.8c-12.8 0-21.333333 8.533333-21.333333 21.333333s8.533333 21.333333 21.333333 21.333333h390.4c10.666667 0 21.333333-8.533333 21.333333-21.333333zM467.2 580.266667h-198.4c-12.8 0-21.333333 8.533333-21.333333 21.333333s8.533333 21.333333 21.333333 21.333333h198.4c12.8 0 21.333333-8.533333 21.333333-21.333333s-10.666667-21.333333-21.333333-21.333333zM467.2 729.6h-198.4c-12.8 0-21.333333 8.533333-21.333333 21.333333s8.533333 21.333333 21.333333 21.333334h198.4c12.8 0 21.333333-8.533333 21.333333-21.333334s-10.666667-21.333333-21.333333-21.333333z" fill="currentColor" p-id="24014"></path></svg>