<?xml version="1.0" standalone="no"?><!DOCTYPE svg PUBLIC "-//W3C//DTD SVG 1.1//EN" "http://www.w3.org/Graphics/SVG/1.1/DTD/svg11.dtd"><svg t="1568020909888" class="icon" viewBox="0 0 1024 1024" version="1.1" xmlns="http://www.w3.org/2000/svg" p-id="7192" xmlns:xlink="http://www.w3.org/1999/xlink" width="48" height="48"><defs><style type="text/css"></style></defs><path d="M743.2 701.21a37.84 37.84 0 0 1-0.39 52.88l5.51-5.51a36.5 36.5 0 0 1-52.19-0.3L281.64 322.79a37.84 37.84 0 0 1 0.39-52.88l-5.5 5.51a36.5 36.5 0 0 1 52.19 0.3z" p-id="7193"></path><path d="M701.21 284.3a37.84 37.84 0 0 1 52.88 0.39l-5.51-5.51a36.5 36.5 0 0 1-0.3 52.19L322.79 745.86a37.84 37.84 0 0 1-52.88-0.39l5.51 5.51a36.5 36.5 0 0 1 0.3-52.19z" p-id="7194"></path></svg>