<?xml version="1.0" standalone="no"?><!DOCTYPE svg PUBLIC "-//W3C//DTD SVG 1.1//EN" "http://www.w3.org/Graphics/SVG/1.1/DTD/svg11.dtd"><svg t="1571188610607" class="icon" viewBox="0 0 1024 1024" version="1.1" xmlns="http://www.w3.org/2000/svg" p-id="5310" width="48" height="48" xmlns:xlink="http://www.w3.org/1999/xlink"><defs><style type="text/css"></style></defs><path d="M512 1024C229.2224 1024 0 794.7776 0 512S229.2224 0 512 0s512 229.2224 512 512-229.2224 512-512 512z m220.0064-711.5776l-293.376 299.3664-146.6368-149.6576a45.4144 45.4144 0 0 0-65.1776 0 47.7184 47.7184 0 0 0 0 66.5088l179.2512 182.9376 1.536 1.4336c18.0736 16.896 46.1312 16.384 63.6416-1.4336l325.9392-332.5952a47.7184 47.7184 0 0 0 0-66.56 45.4144 45.4144 0 0 0-65.1776 0z" fill="#29cc44" p-id="5311"></path></svg>